<svg xmlns="http://www.w3.org/2000/svg" width="1200" height="800" viewBox="0 0 1200 800">
  <defs>
    <linearGradient id="bg" x1="0" y1="0" x2="1" y2="1">
      <stop offset="0" stop-color="#10214a"/>
      <stop offset=".48" stop-color="#063a88"/>
      <stop offset="1" stop-color="#1677ff"/>
    </linearGradient>
    <linearGradient id="panel" x1="0" y1="0" x2="1" y2="1">
      <stop offset="0" stop-color="#f7f9ff"/>
      <stop offset="1" stop-color="#dfe9ff"/>
    </linearGradient>
    <filter id="shadow" x="-20%" y="-20%" width="140%" height="150%">
      <feDropShadow dx="0" dy="36" stdDeviation="36" flood-color="#00142f" flood-opacity=".48"/>
    </filter>
  </defs>
  <rect width="1200" height="800" fill="url(#bg)"/>
  <circle cx="1030" cy="108" r="220" fill="#64c7ff" opacity=".24"/>
  <circle cx="210" cy="650" r="260" fill="#001c55" opacity=".46"/>
  <g filter="url(#shadow)" transform="translate(170 128) rotate(-5 430 270)">
    <rect width="860" height="540" rx="34" fill="#071018"/>
    <rect x="18" y="18" width="824" height="504" rx="24" fill="url(#panel)"/>
    <rect x="48" y="48" width="156" height="424" rx="22" fill="#09131f"/>
    <circle cx="82" cy="86" r="14" fill="#1677ff"/>
    <rect x="72" y="132" width="92" height="10" rx="5" fill="#66758c"/>
    <rect x="72" y="172" width="106" height="10" rx="5" fill="#34445f"/>
    <rect x="72" y="212" width="74" height="10" rx="5" fill="#34445f"/>
    <rect x="72" y="252" width="96" height="10" rx="5" fill="#34445f"/>
    <rect x="238" y="54" width="260" height="42" rx="12" fill="#ffffff"/>
    <rect x="238" y="128" width="180" height="122" rx="20" fill="#ffffff"/>
    <rect x="440" y="128" width="180" height="122" rx="20" fill="#ffffff"/>
    <rect x="642" y="128" width="154" height="122" rx="20" fill="#ffffff"/>
    <rect x="264" y="158" width="80" height="12" rx="6" fill="#8fa0b8"/>
    <rect x="264" y="190" width="108" height="26" rx="13" fill="#1677ff"/>
    <rect x="466" y="158" width="96" height="12" rx="6" fill="#8fa0b8"/>
    <rect x="466" y="190" width="78" height="26" rx="13" fill="#0bb6ff"/>
    <rect x="668" y="158" width="76" height="12" rx="6" fill="#8fa0b8"/>
    <rect x="668" y="190" width="88" height="26" rx="13" fill="#0d2038"/>
    <rect x="238" y="284" width="558" height="188" rx="24" fill="#ffffff"/>
    <polyline points="278,420 344,360 412,386 486,322 552,348 626,300 742,334" fill="none" stroke="#1677ff" stroke-width="12" stroke-linecap="round" stroke-linejoin="round"/>
    <polyline points="278,442 344,418 412,430 486,396 552,408 626,380 742,394" fill="none" stroke="#a8c8ff" stroke-width="10" stroke-linecap="round" stroke-linejoin="round"/>
    <g fill="#c7d2e4">
      <rect x="278" y="326" width="472" height="2"/>
      <rect x="278" y="372" width="472" height="2"/>
      <rect x="278" y="418" width="472" height="2"/>
    </g>
  </g>
</svg>
