<svg xmlns="http://www.w3.org/2000/svg" width="1200" height="800" viewBox="0 0 1200 800">
  <defs>
    <linearGradient id="bg" x1="0" y1="0" x2="1" y2="1">
      <stop offset="0" stop-color="#090d24"/>
      <stop offset=".56" stop-color="#1d286b"/>
      <stop offset="1" stop-color="#3b5bff"/>
    </linearGradient>
    <filter id="shadow" x="-20%" y="-20%" width="140%" height="150%">
      <feDropShadow dx="0" dy="32" stdDeviation="34" flood-color="#03071f" flood-opacity=".5"/>
    </filter>
  </defs>
  <rect width="1200" height="800" fill="url(#bg)"/>
  <circle cx="950" cy="170" r="230" fill="#7c96ff" opacity=".22"/>
  <circle cx="250" cy="650" r="300" fill="#111a52" opacity=".58"/>
  <g filter="url(#shadow)" transform="translate(168 140) rotate(4 430 260)">
    <rect width="864" height="520" rx="32" fill="#0a0f20"/>
    <rect x="18" y="18" width="828" height="484" rx="24" fill="#eef3ff"/>
    <rect x="48" y="48" width="220" height="424" rx="24" fill="#ffffff"/>
    <rect x="78" y="82" width="96" height="12" rx="6" fill="#71809a"/>
    <rect x="78" y="120" width="154" height="48" rx="20" fill="#edf2ff"/>
    <rect x="78" y="188" width="154" height="48" rx="20" fill="#edf2ff"/>
    <rect x="78" y="256" width="154" height="48" rx="20" fill="#3b5bff"/>
    <rect x="78" y="324" width="154" height="48" rx="20" fill="#edf2ff"/>
    <rect x="304" y="54" width="236" height="44" rx="15" fill="#ffffff"/>
    <rect x="304" y="128" width="500" height="160" rx="24" fill="#ffffff"/>
    <rect x="336" y="162" width="108" height="12" rx="6" fill="#71809a"/>
    <rect x="336" y="205" width="420" height="18" rx="9" fill="#d5ddf0"/>
    <rect x="336" y="242" width="318" height="18" rx="9" fill="#d5ddf0"/>
    <rect x="304" y="318" width="235" height="154" rx="24" fill="#ffffff"/>
    <rect x="569" y="318" width="235" height="154" rx="24" fill="#ffffff"/>
    <path d="M344 418C372 362 393 430 421 390C449 350 470 428 500 372" fill="none" stroke="#3b5bff" stroke-width="10" stroke-linecap="round"/>
    <path d="M606 390H648M627 369V411" stroke="#3b5bff" stroke-width="16" stroke-linecap="round"/>
    <rect x="674" y="362" width="82" height="14" rx="7" fill="#96a4be"/>
    <rect x="674" y="396" width="54" height="14" rx="7" fill="#c2cbe0"/>
  </g>
</svg>
