<svg width="200" height="200" viewBox="0 0 200 200" fill="none" xmlns="http://www.w3.org/2000/svg">
<path d="M154.501 33H45.4995C37.9425 33.0052 30.6966 36.0095 25.3531 41.3531C20.0095 46.6966 17.0052 53.9425 17 61.4995L17 137.794C17.0052 145.353 20.0089 152.601 25.3519 157.948C30.6949 163.294 37.9407 166.303 45.4995 166.314H154.501C162.059 166.303 169.305 163.294 174.648 157.948C179.991 152.601 182.995 145.353 183 137.794V61.4995C182.995 53.9425 179.99 46.6966 174.647 41.3531C169.303 36.0095 162.057 33.0052 154.501 33ZM169.609 61.4995V137.794C169.604 141.8 168.011 145.64 165.178 148.472C162.346 151.304 158.506 152.898 154.501 152.903H45.4995C41.4958 152.898 37.6578 151.304 34.8287 148.471C31.9995 145.638 30.4103 141.798 30.4104 137.794V61.4995C30.4084 59.6553 30.75 57.8268 31.4176 56.1077L88.693 104.239C91.8699 106.936 95.9018 108.417 100.069 108.417C104.236 108.417 108.268 106.936 111.445 104.239L168.721 56.0879C169.35 57.8211 169.651 59.6561 169.609 61.4995ZM102.735 94.0082C101.972 94.6567 101.002 95.0128 100 95.0128C98.9979 95.0128 98.0285 94.6567 97.2646 94.0082L41.3914 46.9831C42.7272 46.601 44.1101 46.4082 45.4995 46.4104H154.501C155.89 46.4082 157.273 46.601 158.609 46.9831L102.735 94.0082Z" fill="black"/>
</svg>
