<svg width="200" height="200" viewBox="0 0 200 200" fill="none" xmlns="http://www.w3.org/2000/svg">
  <path d="M100 17C54.2 17 17 54.2 17 100C17 136.7 40.8 167.8 73.8 178.8C78 179.6 79.5 177 79.5 174.7C79.5 172.7 79.4 166 79.4 159.2C56.3 164.2 51.4 149.3 51.4 149.3C47.7 139.7 42.2 137.1 42.2 137.1C34.6 131.9 42.8 132 42.8 132C51.2 132.6 55.7 140.7 55.7 140.7C63.2 153.5 75.4 149.8 80.2 147.7C81 142.3 83.2 138.6 85.6 136.5C67.2 134.4 47.8 127.3 47.8 95.5C47.8 86.5 51 79.1 56.5 73.3C55.6 71.2 52.7 62.8 57.3 51.4C57.3 51.4 64.4 49.1 80.5 59.9C87.2 58 94.4 57.1 101.6 57.1C108.8 57.1 116 58 122.7 59.9C138.8 49 145.9 51.4 145.9 51.4C150.5 62.8 147.6 71.2 146.7 73.3C152.1 79.1 155.4 86.5 155.4 95.5C155.4 127.4 135.9 134.4 117.4 136.4C120.5 139 123.1 144.1 123.1 152V174.7C123.1 177 124.6 179.6 128.9 178.8C161.8 167.8 185.6 136.7 185.6 100C185.6 54.2 148.5 17 102.6 17H100Z" stroke="black" stroke-width="13" stroke-linecap="round" stroke-linejoin="round"/>
</svg>
