<svg width="200" height="200" viewBox="0 0 200 200" fill="none" xmlns="http://www.w3.org/2000/svg">
<path d="M149.965 79.9168C169.402 86.771 183.333 105.3 183.333 127.083C183.333 135.425 181.283 143.486 177.423 150.686C177.073 151.338 176.448 152.429 175.529 153.998L178.383 164.458C179.654 169.125 175.375 173.406 170.708 172.133L160.231 169.275L159.015 169.992C151.257 174.645 142.379 177.096 133.333 177.083C118.1 177.083 104.458 170.271 95.2854 159.527C91.6279 160.121 87.9284 160.418 84.2229 160.417C71.8521 160.417 59.9521 157.125 49.5604 150.983C49.2021 150.771 48.3083 150.254 46.8979 149.442L31.1667 153.671C26.4958 154.927 22.2292 150.629 23.5208 145.969L27.7771 130.588C26.7125 128.826 25.6769 127.048 24.6708 125.252C19.4064 115.588 16.6542 104.756 16.6667 93.7502C16.6667 56.9106 46.9333 27.0835 84.2229 27.0835C115.456 27.0835 142.423 48.1793 149.813 77.7273C149.998 78.4627 150.042 79.2022 149.965 79.9147V79.9168ZM136.663 77.1918C129.469 55.0856 108.433 39.5835 84.2229 39.5835C53.7958 39.5835 29.1667 63.8543 29.1667 93.7502C29.1667 102.788 31.4125 111.492 35.65 119.277C36.2125 120.311 37.6375 122.736 39.8729 126.454C40.3095 127.181 40.5938 127.989 40.7084 128.829C40.823 129.668 40.7656 130.523 40.5396 131.34L38.4854 138.761L46.1479 136.7C47.7449 136.271 49.4469 136.492 50.8813 137.315C53.6688 138.915 55.3292 139.873 55.9208 140.223C64.4933 145.282 74.2693 147.939 84.2229 147.917C85.425 147.917 86.6229 147.879 87.8146 147.804C84.8515 141.299 83.3231 134.232 83.3333 127.083C83.3333 99.4689 105.719 77.0835 133.333 77.0835C134.452 77.0835 135.563 77.121 136.663 77.1918ZM162.777 154.742C162.557 153.934 162.501 153.091 162.613 152.261C162.725 151.432 163.003 150.633 163.429 149.913C164.448 148.216 165.44 146.504 166.406 144.777C169.323 139.336 170.844 133.257 170.833 127.083C170.833 106.373 154.044 89.5835 133.333 89.5835C112.623 89.5835 95.8333 106.373 95.8333 127.083C95.8333 147.794 112.623 164.583 133.333 164.583C140.114 164.596 146.77 162.759 152.585 159.271C153.017 159.013 154.204 158.319 156.202 157.154C156.919 156.737 157.712 156.467 158.534 156.359C159.356 156.252 160.192 156.309 160.992 156.527L163.446 157.196L162.777 154.742ZM64.5833 83.3335C62.3732 83.3335 60.2536 82.4555 58.6908 80.8927C57.128 79.3299 56.25 77.2103 56.25 75.0002C56.25 72.79 57.128 70.6704 58.6908 69.1076C60.2536 67.5448 62.3732 66.6668 64.5833 66.6668C66.7935 66.6668 68.9131 67.5448 70.4759 69.1076C72.0387 70.6704 72.9167 72.79 72.9167 75.0002C72.9167 77.2103 72.0387 79.3299 70.4759 80.8927C68.9131 82.4555 66.7935 83.3335 64.5833 83.3335ZM102.083 83.3335C99.8732 83.3335 97.7536 82.4555 96.1908 80.8927C94.628 79.3299 93.75 77.2103 93.75 75.0002C93.75 72.79 94.628 70.6704 96.1908 69.1076C97.7536 67.5448 99.8732 66.6668 102.083 66.6668C104.293 66.6668 106.413 67.5448 107.976 69.1076C109.539 70.6704 110.417 72.79 110.417 75.0002C110.417 77.2103 109.539 79.3299 107.976 80.8927C106.413 82.4555 104.293 83.3335 102.083 83.3335ZM118.75 122.917C117.092 122.917 115.503 122.258 114.331 121.086C113.158 119.914 112.5 118.324 112.5 116.667C112.5 115.009 113.158 113.42 114.331 112.247C115.503 111.075 117.092 110.417 118.75 110.417C120.408 110.417 121.997 111.075 123.169 112.247C124.342 113.42 125 115.009 125 116.667C125 118.324 124.342 119.914 123.169 121.086C121.997 122.258 120.408 122.917 118.75 122.917ZM147.917 122.917C146.259 122.917 144.669 122.258 143.497 121.086C142.325 119.914 141.667 118.324 141.667 116.667C141.667 115.009 142.325 113.42 143.497 112.247C144.669 111.075 146.259 110.417 147.917 110.417C149.574 110.417 151.164 111.075 152.336 112.247C153.508 113.42 154.167 115.009 154.167 116.667C154.167 118.324 153.508 119.914 152.336 121.086C151.164 122.258 149.574 122.917 147.917 122.917Z" fill="black"/>
</svg>
