<svg width="331" height="43" viewBox="0 0 331 43" fill="none" xmlns="http://www.w3.org/2000/svg">
<path d="M299.109 41.9841C295.226 41.9841 291.749 41.3227 288.677 40.0001C285.605 38.6347 283.173 36.7147 281.381 34.2401C279.589 31.7654 278.693 28.8214 278.693 25.4081C278.693 21.9094 279.589 18.9227 281.381 16.4481C283.173 13.9734 285.626 12.0747 288.741 10.7521C291.856 9.4294 295.397 8.76807 299.365 8.76807C303.76 8.76807 307.45 9.4934 310.437 10.9441C313.424 12.3521 315.664 14.3147 317.157 16.8321C318.693 19.3494 319.461 22.2081 319.461 25.4081C319.461 27.5841 319.013 29.6747 318.117 31.6801C317.264 33.6427 315.984 35.4134 314.277 36.9921C312.57 38.5281 310.437 39.7441 307.877 40.6401C305.36 41.5361 302.437 41.9841 299.109 41.9841ZM303.333 33.9201C306.234 33.9201 308.816 33.6214 311.077 33.0241C313.338 32.3841 315.13 31.4454 316.453 30.2081C317.776 28.9281 318.437 27.3281 318.437 25.4081C318.437 23.4027 317.776 21.7814 316.453 20.5441C315.13 19.3067 313.338 18.3894 311.077 17.7921C308.816 17.1947 306.234 16.8961 303.333 16.8961C299.408 16.8961 296.357 17.6427 294.181 19.1361C292.005 20.6294 290.917 22.7201 290.917 25.4081C290.917 27.2001 291.408 28.7361 292.389 30.0161C293.413 31.2534 294.842 32.2134 296.677 32.8961C298.554 33.5787 300.773 33.9201 303.333 33.9201ZM318.437 9.60007H330.277V41.2161H319.141C319.141 41.2161 319.077 40.7681 318.949 39.8721C318.821 38.9334 318.693 37.6961 318.565 36.1601C318.48 34.5814 318.437 32.8747 318.437 31.0401V9.60007Z" fill="black"/>
<path d="M233.949 30.2721H244.893C245.405 31.5521 246.45 32.5334 248.029 33.2161C249.608 33.8987 251.784 34.2401 254.557 34.2401C256.605 34.2401 258.141 34.1121 259.165 33.8561C260.189 33.5574 260.872 33.1521 261.213 32.6401C261.597 32.1281 261.789 31.5734 261.789 30.9761C261.789 30.1654 261.448 29.5681 260.765 29.1841C260.082 28.8001 258.973 28.5227 257.437 28.3521C255.944 28.1814 253.938 28.0321 251.421 27.9041C248.946 27.7334 246.685 27.4774 244.637 27.1361C242.589 26.7947 240.818 26.3041 239.325 25.6641C237.832 24.9814 236.658 24.0854 235.805 22.9761C234.994 21.8667 234.589 20.5014 234.589 18.8801C234.589 17.0881 235.101 15.5521 236.125 14.2721C237.192 12.9921 238.621 11.9467 240.413 11.1361C242.205 10.3254 244.296 9.72807 246.685 9.34407C249.074 8.96007 251.613 8.76807 254.301 8.76807C258.568 8.76807 262.066 9.28006 264.797 10.3041C267.57 11.2854 269.618 12.6507 270.941 14.4001C272.264 16.1494 272.925 18.1334 272.925 20.3521H262.365C261.938 18.9867 261.149 18.0267 259.997 17.4721C258.845 16.9174 256.946 16.6401 254.301 16.6401C251.741 16.6401 249.864 16.9174 248.669 17.4721C247.474 17.9841 246.877 18.7734 246.877 19.8401C246.877 20.6081 247.197 21.2054 247.837 21.6321C248.52 22.0161 249.65 22.3147 251.229 22.5281C252.808 22.7414 254.984 22.9334 257.757 23.1041C259.805 23.2747 261.789 23.5094 263.709 23.8081C265.672 24.1067 267.421 24.5547 268.957 25.1521C270.536 25.7494 271.773 26.6241 272.669 27.7761C273.565 28.8854 274.013 30.3574 274.013 32.1921C274.013 34.4107 273.224 36.2667 271.645 37.7601C270.066 39.2107 267.826 40.2987 264.925 41.0241C262.024 41.7067 258.589 42.0481 254.621 42.0481C251.122 42.0481 248.136 41.7707 245.661 41.2161C243.229 40.6614 241.224 39.9361 239.645 39.0401C238.066 38.1014 236.85 37.0987 235.997 36.0321C235.144 34.9654 234.568 33.9201 234.269 32.8961C233.97 31.8721 233.864 30.9974 233.949 30.2721Z" fill="black"/>
<path d="M196.984 41.9841C193.101 41.9841 189.624 41.3227 186.552 40.0001C183.48 38.6347 181.048 36.7147 179.256 34.2401C177.464 31.7654 176.568 28.8214 176.568 25.4081C176.568 21.9094 177.464 18.9227 179.256 16.4481C181.048 13.9734 183.501 12.0747 186.616 10.7521C189.731 9.4294 193.272 8.76807 197.24 8.76807C201.635 8.76807 205.325 9.4934 208.312 10.9441C211.299 12.3521 213.539 14.3147 215.032 16.8321C216.568 19.3494 217.336 22.2081 217.336 25.4081C217.336 27.5841 216.888 29.6747 215.992 31.6801C215.139 33.6427 213.859 35.4134 212.152 36.9921C210.445 38.5281 208.312 39.7441 205.752 40.6401C203.235 41.5361 200.312 41.9841 196.984 41.9841ZM201.208 33.9201C204.109 33.9201 206.691 33.6214 208.952 33.0241C211.213 32.3841 213.005 31.4454 214.328 30.2081C215.651 28.9281 216.312 27.3281 216.312 25.4081C216.312 23.4027 215.651 21.7814 214.328 20.5441C213.005 19.3067 211.213 18.3894 208.952 17.7921C206.691 17.1947 204.109 16.8961 201.208 16.8961C197.283 16.8961 194.232 17.6427 192.056 19.1361C189.88 20.6294 188.792 22.7201 188.792 25.4081C188.792 27.2001 189.283 28.7361 190.264 30.0161C191.288 31.2534 192.717 32.2134 194.552 32.8961C196.429 33.5787 198.648 33.9201 201.208 33.9201ZM216.312 9.60007H228.152V41.2161H217.016C217.016 41.2161 216.952 40.7681 216.824 39.8721C216.696 38.9334 216.568 37.6961 216.44 36.1601C216.355 34.5814 216.312 32.8747 216.312 31.0401V9.60007Z" fill="black"/>
<path d="M146.849 42.0481C141.431 42.0481 136.823 41.4507 133.025 40.2561C129.271 39.0614 126.412 37.2481 124.449 34.8161C122.487 32.3841 121.505 29.2694 121.505 25.4721C121.505 21.7174 122.487 18.6027 124.449 16.1281C126.412 13.6534 129.271 11.8187 133.025 10.6241C136.823 9.38673 141.431 8.76807 146.849 8.76807C152.225 8.76807 156.769 9.38673 160.481 10.6241C164.236 11.8187 167.095 13.6534 169.057 16.1281C171.02 18.6027 172.001 21.7174 172.001 25.4721C172.001 29.2694 171.02 32.3841 169.057 34.8161C167.095 37.2481 164.236 39.0614 160.481 40.2561C156.769 41.4507 152.225 42.0481 146.849 42.0481ZM146.849 34.2401C149.537 34.2401 151.841 33.9201 153.761 33.2801C155.724 32.5974 157.239 31.6161 158.305 30.3361C159.372 29.0134 159.905 27.3921 159.905 25.4721C159.905 23.5947 159.372 21.9947 158.305 20.6721C157.281 19.3067 155.788 18.2827 153.825 17.6001C151.905 16.9174 149.58 16.5761 146.849 16.5761C144.161 16.5761 141.815 16.9174 139.809 17.6001C137.804 18.2827 136.247 19.2854 135.137 20.6081C134.071 21.9307 133.537 23.5521 133.537 25.4721C133.537 27.3921 134.071 29.0134 135.137 30.3361C136.204 31.6161 137.74 32.5974 139.745 33.2801C141.751 33.9201 144.119 34.2401 146.849 34.2401Z" fill="black"/>
<path d="M115.893 41.2161H104.053V9.6001H115.893V41.2161ZM104.629 25.4721L104.693 28.0961C104.607 28.8214 104.287 29.7814 103.733 30.9761C103.221 32.1281 102.474 33.3441 101.493 34.6241C100.554 35.9041 99.3592 37.1201 97.9085 38.2721C96.4578 39.3814 94.7512 40.2988 92.7885 41.0241C90.8258 41.7068 88.5858 42.0481 86.0685 42.0481C83.7645 42.0481 81.5672 41.7921 79.4765 41.2801C77.3858 40.8108 75.5085 40.0001 73.8445 38.8481C72.1805 37.6534 70.8578 36.0748 69.8765 34.1121C68.9378 32.1494 68.4685 29.6748 68.4685 26.6881V9.6001H80.3085V25.1521C80.3085 27.3708 80.6712 29.0988 81.3965 30.3361C82.1218 31.5308 83.2312 32.3841 84.7245 32.8961C86.2178 33.3654 88.0738 33.6001 90.2925 33.6001C92.6818 33.6001 94.8365 33.1734 96.7565 32.3201C98.6765 31.4241 100.298 30.3574 101.621 29.1201C102.986 27.8401 103.989 26.6241 104.629 25.4721Z" fill="black"/>
<path d="M34.88 0C40.0853 0 44.3947 0.554667 47.808 1.664C51.264 2.77334 53.9733 4.288 55.936 6.208C57.9413 8.128 59.3493 10.3253 60.16 12.8C61.0133 15.232 61.44 17.8133 61.44 20.544C61.44 23.232 60.9707 25.8347 60.032 28.352C59.136 30.8267 57.6427 33.024 55.552 34.944C53.504 36.864 50.7733 38.4 47.36 39.552C43.9893 40.6613 39.8293 41.216 34.88 41.216H0V0H34.88ZM12.224 31.168H34.432C37.1627 31.168 39.4453 30.912 41.28 30.4C43.1573 29.8453 44.6293 29.0987 45.696 28.16C46.8053 27.1787 47.5947 26.048 48.064 24.768C48.576 23.4453 48.832 22.0373 48.832 20.544C48.832 19.008 48.576 17.6213 48.064 16.384C47.5947 15.104 46.8053 13.9947 45.696 13.056C44.6293 12.1173 43.1573 11.392 41.28 10.88C39.4453 10.3253 37.1627 10.048 34.432 10.048H12.224V31.168Z" fill="black"/>
</svg>
