<svg width="648" height="100" viewBox="0 0 648 100" fill="none" xmlns="http://www.w3.org/2000/svg">
<path d="M192.517 65.0986C192.517 69.9543 193.276 73.7983 194.793 76.6309C196.412 79.3623 198.739 81.2847 201.773 82.3975C204.808 83.5102 208.399 84.0664 212.547 84.0664C218.009 84.0664 222.714 82.9037 226.659 80.5771C228.761 79.2838 230.645 77.8441 232.316 76.2637V22.7617H252.043V98.1787H232.316V87.7119C231.549 88.6829 230.726 89.6435 229.846 90.5918C227.216 93.323 223.979 95.5991 220.135 97.4199C216.291 99.1397 211.738 100 206.478 100C202.33 100 198.233 99.494 194.187 98.4824C190.241 97.4708 186.649 95.8014 183.412 93.4746C180.175 91.0467 177.595 87.81 175.673 83.7637C173.751 79.7172 172.79 74.6083 172.79 68.4375V22.7617H192.517V65.0986ZM314.465 21.0928C323.974 21.0928 332.27 22.6096 339.352 25.6445C346.534 28.6794 352.149 33.1818 356.195 39.1504C360.242 45.0178 362.265 52.2007 362.265 60.6982C362.265 69.1959 360.242 76.3787 356.195 82.2461C352.149 88.0123 346.534 92.4124 339.352 95.4473C332.27 98.4822 323.974 100 314.465 100C304.956 100 296.559 98.4821 289.275 95.4473C282.093 92.4124 276.478 88.0123 272.432 82.2461C268.385 76.3787 266.362 69.1959 266.362 60.6982C266.362 52.2006 268.385 45.0178 272.432 39.1504C276.478 33.1818 282.093 28.6794 289.275 25.6445C296.559 22.6097 304.956 21.0928 314.465 21.0928ZM512.953 21.0928C520.439 21.0928 526.661 22.2051 531.618 24.4307C536.575 26.5551 540.267 29.5908 542.695 33.5361C545.224 37.3803 546.489 41.8316 546.489 46.8896H529.038C528.229 43.1466 526.611 40.4653 524.183 38.8467C521.755 37.1269 518.011 36.2666 512.953 36.2666C507.996 36.2666 504.254 37.0257 501.725 38.543C499.196 40.0604 497.931 42.1345 497.931 44.7646C497.931 46.8891 498.69 48.5585 500.207 49.7725C501.826 50.8852 504.153 51.7958 507.188 52.5039C510.323 53.212 514.218 53.971 518.871 54.7803C522.816 55.5896 526.56 56.5001 530.101 57.5117C533.742 58.5233 536.98 59.8384 539.812 61.457C542.645 62.9745 544.871 65.0486 546.489 67.6787C548.209 70.2077 549.068 73.4446 549.068 77.3896C549.068 82.2455 547.653 86.3433 544.82 89.6816C542.089 93.02 538.143 95.599 532.983 97.4199C527.824 99.1397 521.653 100 514.471 100C508.098 100 502.584 99.3424 497.931 98.0273C493.378 96.6111 489.585 94.8403 486.55 92.7158C483.515 90.4904 481.138 88.1641 479.418 85.7363C477.799 83.2072 476.686 80.8291 476.079 78.6035C475.472 76.3784 475.27 74.5577 475.473 73.1416H493.682C494.794 76.581 497.071 79.4132 500.511 81.6387C504.051 83.763 508.654 84.8252 514.319 84.8252C518.163 84.8252 521.148 84.4718 523.272 83.7637C525.397 83.0555 526.864 82.0436 527.673 80.7285C528.482 79.3123 528.887 77.7441 528.887 76.0244C528.887 73.9 528.229 72.2808 526.914 71.168C525.599 69.9541 523.575 68.9933 520.844 68.2852C518.112 67.5771 514.623 66.9194 510.374 66.3125C506.125 65.6044 502.027 64.745 498.082 63.7334C494.137 62.7218 490.647 61.4057 487.612 59.7871C484.577 58.0673 482.149 55.9431 480.328 53.4141C478.608 50.7839 477.748 47.5974 477.748 43.8545C477.748 40.2126 478.608 36.9752 480.328 34.1426C482.149 31.31 484.628 28.9328 487.764 27.0107C491.001 25.0886 494.744 23.622 498.993 22.6104C503.343 21.5988 507.996 21.0928 512.953 21.0928ZM414.632 21.0928C423.332 21.0928 430.313 22.8626 435.573 26.4033C437.559 27.6774 439.343 29.126 440.927 30.7471V22.7617H460.653V98.1787H442.292C442.289 98.1582 442.137 97.1972 441.837 95.2959C441.645 93.3765 441.454 91.0018 441.262 88.1719C438.47 91.4629 434.957 94.1934 430.717 96.3584C425.962 98.6851 420.246 99.8486 413.569 99.8486C406.083 99.8486 399.255 98.2294 393.084 94.9922C387.014 91.6538 382.158 87.051 378.517 81.1836C374.976 75.215 373.206 68.3355 373.206 60.5459C373.206 52.5541 375.026 45.6242 378.668 39.7568C382.31 33.8894 387.217 29.3378 393.388 26.1006C399.66 22.7622 406.741 21.0928 414.632 21.0928ZM601.944 21.0928C610.373 21.0928 617.187 22.7541 622.388 26.0771L623.384 26.7295C625.171 27.9228 626.789 29.2619 628.239 30.7461V22.7617H647.966V98.1787H629.604C629.601 98.1572 629.449 97.1962 629.149 95.2959C628.957 93.3765 628.766 91.0018 628.574 88.1719C625.782 91.4629 622.269 94.1935 618.029 96.3584C613.275 98.685 607.559 99.8486 600.883 99.8486C593.397 99.8486 586.567 98.2294 580.396 94.9922C574.327 91.6538 569.471 87.0509 565.829 81.1836C562.288 75.215 560.519 68.3354 560.519 60.5459C560.519 52.5541 562.34 45.6242 565.981 39.7568C569.623 33.8897 574.53 29.3377 580.7 26.1006C586.972 22.7622 594.054 21.0928 601.944 21.0928ZM98.1455 0C109.172 0 118.379 1.31507 125.764 3.94531C133.148 6.57555 139.015 10.1674 143.365 14.7197C147.816 19.1709 150.952 24.3298 152.773 30.1973C154.696 36.0647 155.657 42.2356 155.657 48.71C155.657 55.1844 154.595 61.4064 152.471 67.375C150.447 73.3434 147.16 78.6542 142.607 83.3076C138.156 87.86 132.237 91.502 124.853 94.2334C117.569 96.8636 108.666 98.1787 98.1455 98.1787H0V0H98.1455ZM314.465 36.1152C309.205 36.1153 304.45 37.0761 300.201 38.998C295.952 40.9202 292.563 43.7028 290.034 47.3447C287.606 50.9866 286.393 55.4378 286.393 60.6982C286.393 65.8574 287.606 70.2576 290.034 73.8994C292.462 77.44 295.8 80.1717 300.049 82.0938C304.298 83.9147 309.103 84.8252 314.465 84.8252C319.725 84.8252 324.429 83.9147 328.577 82.0938C332.826 80.1716 336.165 77.4401 338.593 73.8994C341.02 70.2577 342.234 65.8573 342.234 60.6982C342.234 55.5389 341.021 51.138 338.593 47.4961C336.165 43.7531 332.877 40.9201 328.729 38.998C324.582 37.0759 319.827 36.1152 314.465 36.1152ZM419.943 36.4189C411.547 36.4189 405.022 38.6446 400.368 43.0957C395.715 47.4457 393.388 53.2623 393.388 60.5459C393.388 65.4017 394.5 69.6511 396.726 73.293C398.951 76.8336 402.037 79.6154 405.982 81.6387C410.029 83.6619 414.683 84.6738 419.943 84.6738C425.912 84.6738 431.071 83.6619 435.421 81.6387C437.485 80.6788 439.318 79.5341 440.927 78.21V42.6279C439.283 41.3015 437.397 40.1925 435.27 39.3018C431.021 37.3797 425.912 36.419 419.943 36.4189ZM607.256 36.4189C598.859 36.4189 592.334 38.6445 587.681 43.0957C583.027 47.4456 580.7 53.2623 580.7 60.5459C580.7 65.4017 581.813 69.6511 584.039 73.293C586.265 76.8335 589.35 79.6155 593.295 81.6387C597.341 83.6619 601.995 84.6738 607.256 84.6738C613.224 84.6738 618.383 83.6619 622.733 81.6387C624.797 80.6788 626.631 79.5341 628.239 78.21V42.6279C626.596 41.3015 624.71 40.1925 622.582 39.3018C618.333 37.3797 613.224 36.419 607.256 36.4189ZM20.1816 80.8799H97.6904C104.974 80.8799 110.993 80.0205 115.748 78.3008C120.604 76.4799 124.448 74.0514 127.28 71.0166C130.113 67.9817 132.137 64.5424 133.351 60.6982C134.565 56.854 135.172 52.8577 135.172 48.71C135.172 44.5623 134.565 40.617 133.351 36.874C132.137 33.131 130.113 29.7921 127.28 26.8584C124.448 23.9249 120.604 21.5986 115.748 19.8789C110.993 18.1591 104.974 17.2988 97.6904 17.2988H20.1816V80.8799Z" fill="white"/>
</svg>
