<svg xmlns="http://www.w3.org/2000/svg" width="1200" height="800" viewBox="0 0 1200 800">
  <defs>
    <linearGradient id="bg" x1="0" y1="0" x2="1" y2="1">
      <stop offset="0" stop-color="#03141d"/>
      <stop offset=".55" stop-color="#06425f"/>
      <stop offset="1" stop-color="#03a9f4"/>
    </linearGradient>
    <filter id="shadow" x="-40%" y="-20%" width="180%" height="150%">
      <feDropShadow dx="0" dy="34" stdDeviation="34" flood-color="#00131c" flood-opacity=".56"/>
    </filter>
  </defs>
  <rect width="1200" height="800" fill="url(#bg)"/>
  <path d="M0 620C220 520 278 610 454 514C636 415 706 184 1200 232V800H0Z" fill="#72d7ff" opacity=".18"/>
  <path d="M0 690C190 620 300 650 466 574C652 489 736 320 1200 354V800H0Z" fill="#e8fbff" opacity=".11"/>
  <g filter="url(#shadow)" transform="translate(475 92) rotate(8 145 310)">
    <rect x="0" y="0" width="290" height="620" rx="52" fill="#090d12"/>
    <rect x="17" y="18" width="256" height="584" rx="38" fill="#f5f7fb"/>
    <rect x="108" y="31" width="74" height="16" rx="8" fill="#090d12"/>
    <rect x="42" y="72" width="76" height="9" rx="5" fill="#657186"/>
    <rect x="42" y="100" width="170" height="34" rx="17" fill="#08101a"/>
    <rect x="42" y="156" width="206" height="142" rx="26" fill="#1677ff"/>
    <circle cx="206" cy="204" r="42" fill="#64c7ff" opacity=".45"/>
    <rect x="66" y="194" width="86" height="14" rx="7" fill="#eaf3ff"/>
    <rect x="66" y="228" width="118" height="30" rx="15" fill="#08101a" opacity=".82"/>
    <rect x="42" y="322" width="94" height="86" rx="22" fill="#ffffff"/>
    <rect x="154" y="322" width="94" height="86" rx="22" fill="#ffffff"/>
    <rect x="63" y="348" width="52" height="10" rx="5" fill="#91a0b7"/>
    <rect x="63" y="374" width="38" height="18" rx="9" fill="#1677ff"/>
    <rect x="175" y="348" width="52" height="10" rx="5" fill="#91a0b7"/>
    <rect x="175" y="374" width="42" height="18" rx="9" fill="#0cc1ff"/>
    <rect x="42" y="434" width="206" height="42" rx="18" fill="#e8edf7"/>
    <rect x="64" y="450" width="88" height="10" rx="5" fill="#617087"/>
    <rect x="42" y="492" width="206" height="42" rx="18" fill="#e8edf7"/>
    <rect x="64" y="508" width="126" height="10" rx="5" fill="#617087"/>
    <rect x="42" y="552" width="206" height="28" rx="14" fill="#08101a"/>
  </g>
</svg>
