<svg width="1200" height="820" viewBox="0 0 1200 820" fill="none" xmlns="http://www.w3.org/2000/svg">
  <defs>
    <linearGradient id="bg" x1="0" y1="0" x2="1200" y2="820" gradientUnits="userSpaceOnUse">
      <stop stop-color="#07130D"/>
      <stop offset="0.42" stop-color="#123E24"/>
      <stop offset="1" stop-color="#3ECF82"/>
    </linearGradient>
    <linearGradient id="cloth" x1="110" y1="-60" x2="690" y2="900" gradientUnits="userSpaceOnUse">
      <stop stop-color="#7FBF70"/>
      <stop offset="0.45" stop-color="#335F32"/>
      <stop offset="1" stop-color="#0B1B10"/>
    </linearGradient>
    <linearGradient id="screen" x1="0" y1="0" x2="0" y2="620" gradientUnits="userSpaceOnUse">
      <stop stop-color="#FFFFFF"/>
      <stop offset="1" stop-color="#F5F5F0"/>
    </linearGradient>
    <filter id="shadow" x="300" y="28" width="726" height="775" filterUnits="userSpaceOnUse" color-interpolation-filters="sRGB">
      <feDropShadow dx="-18" dy="30" stdDeviation="32" flood-color="#000000" flood-opacity="0.45"/>
    </filter>
    <filter id="grain" x="0" y="0" width="1200" height="820" filterUnits="userSpaceOnUse">
      <feTurbulence type="fractalNoise" baseFrequency="0.85" numOctaves="4" stitchTiles="stitch"/>
      <feColorMatrix type="saturate" values="0"/>
      <feComponentTransfer>
        <feFuncA type="table" tableValues="0 0.16"/>
      </feComponentTransfer>
    </filter>
  </defs>
  <rect width="1200" height="820" fill="url(#bg)"/>
  <path d="M-120 -20L290 -120L745 820L210 920L-120 -20Z" fill="url(#cloth)" opacity="0.9"/>
  <path d="M115 -60L470 -125L940 820L570 890L115 -60Z" fill="#A4D38C" opacity="0.16"/>
  <path d="M-60 640C190 606 306 568 470 500C642 429 792 354 1238 298" stroke="#D6F3C7" stroke-opacity="0.12" stroke-width="2"/>
  <g filter="url(#shadow)" transform="translate(600 392) rotate(-18) translate(-600 -392)">
    <rect x="438" y="74" width="324" height="650" rx="58" fill="#0A0C0D"/>
    <rect x="454" y="92" width="292" height="616" rx="44" fill="url(#screen)"/>
    <rect x="548" y="105" width="104" height="34" rx="17" fill="#050505"/>
    <text x="493" y="160" fill="#121416" font-family="Arial, Helvetica, sans-serif" font-size="24" font-weight="700">Berlin</text>
    <circle cx="713" cy="158" r="10" fill="#111"/>
    <rect x="488" y="190" width="224" height="224" rx="28" fill="#0D3B22"/>
    <text x="512" y="236" fill="#F8FFF8" font-family="Arial, Helvetica, sans-serif" font-size="27" font-weight="800">Get started!</text>
    <text x="512" y="268" fill="#E3F6E8" font-family="Arial, Helvetica, sans-serif" font-size="15" font-weight="700">Complete the quest</text>
    <rect x="512" y="293" width="176" height="8" rx="4" fill="#53705E"/>
    <rect x="512" y="293" width="32" height="8" rx="4" fill="#45EA83"/>
    <g fill="#F6FFF8" font-family="Arial, Helvetica, sans-serif" font-size="14" font-weight="700">
      <text x="545" y="332">See how it works</text>
      <text x="545" y="365">Save places you love</text>
      <text x="545" y="398">Redeem 2 deals</text>
    </g>
    <g stroke="#8AA391" stroke-width="3">
      <rect x="512" y="316" width="19" height="19" rx="4"/>
      <rect x="512" y="349" width="19" height="19" rx="4"/>
      <rect x="512" y="382" width="19" height="19" rx="4"/>
    </g>
    <text x="488" y="462" fill="#111318" font-family="Arial, Helvetica, sans-serif" font-size="25" font-weight="800">Open near you</text>
    <rect x="488" y="484" width="112" height="114" rx="18" fill="#E9C795"/>
    <circle cx="544" cy="542" r="32" fill="#F5F1E8"/>
    <circle cx="532" cy="535" r="14" fill="#D77832"/>
    <circle cx="560" cy="545" r="13" fill="#5AA15C"/>
    <rect x="616" y="484" width="96" height="114" rx="18" fill="#161718"/>
    <path d="M637 551C661 528 683 530 707 550V598H637V551Z" fill="#FFB347"/>
    <rect x="488" y="620" width="224" height="56" rx="28" fill="#FFFFFF"/>
    <g fill="#111318" opacity="0.82">
      <circle cx="526" cy="648" r="9"/>
      <circle cx="581" cy="648" r="9"/>
      <circle cx="636" cy="648" r="9"/>
      <circle cx="691" cy="648" r="9"/>
    </g>
  </g>
  <rect width="1200" height="820" filter="url(#grain)" opacity="0.38"/>
</svg>
